<svg xmlns="http://www.w3.org/2000/svg" xmlns:xlink="http://www.w3.org/1999/xlink" width="500" zoomAndPan="magnify" viewBox="0 0 375 153.000002" height="204" preserveAspectRatio="xMidYMid meet" version="1.0"><defs><g/><clipPath id="5fe1001f8a"><path d="M 3 58 L 172 58 L 172 151.835938 L 3 151.835938 Z M 3 58 " clip-rule="nonzero"/></clipPath><clipPath id="d66788f3b5"><path d="M 100 0 L 373.78125 0 L 373.78125 143 L 100 143 Z M 100 0 " clip-rule="nonzero"/></clipPath><clipPath id="80f47475a3"><path d="M 132 27 L 373.78125 27 L 373.78125 152.007812 L 132 152.007812 Z M 132 27 " clip-rule="nonzero"/></clipPath></defs><path fill="#ffffff" d="M 140.980469 40.476562 C 140.882812 39.742188 140.722656 39.019531 140.492188 38.316406 C 140.265625 37.609375 139.980469 36.929688 139.628906 36.277344 C 139.28125 35.621094 138.875 35.003906 138.414062 34.425781 C 137.953125 33.84375 137.441406 33.308594 136.886719 32.820312 C 136.328125 32.332031 135.730469 31.898438 135.09375 31.519531 C 134.457031 31.136719 133.792969 30.816406 133.097656 30.554688 C 132.40625 30.296875 131.695312 30.097656 130.964844 29.96875 C 130.234375 29.835938 129.5 29.769531 128.757812 29.769531 L 115.148438 29.769531 L 115.148438 41.832031 C 115.550781 42.015625 115.925781 42.242188 116.277344 42.511719 C 116.628906 42.777344 116.945312 43.082031 117.226562 43.425781 C 117.507812 43.765625 117.746094 44.132812 117.945312 44.527344 C 118.144531 44.921875 118.296875 45.335938 118.398438 45.765625 C 118.503906 46.195312 118.558594 46.628906 118.566406 47.070312 C 118.570312 47.511719 118.527344 47.949219 118.433594 48.382812 C 118.339844 48.8125 118.199219 49.230469 118.011719 49.628906 C 117.824219 50.03125 117.589844 50.402344 117.320312 50.75 C 117.046875 51.097656 116.738281 51.410156 116.394531 51.6875 C 116.046875 51.964844 115.679688 52.203125 115.28125 52.394531 C 114.882812 52.589844 114.46875 52.734375 114.039062 52.832031 C 113.605469 52.933594 113.171875 52.984375 112.730469 52.984375 C 112.285156 52.984375 111.851562 52.933594 111.417969 52.832031 C 110.988281 52.734375 110.574219 52.589844 110.175781 52.394531 C 109.78125 52.203125 109.410156 51.964844 109.0625 51.6875 C 108.71875 51.410156 108.410156 51.097656 108.140625 50.75 C 107.867188 50.402344 107.636719 50.03125 107.445312 49.628906 C 107.257812 49.230469 107.117188 48.8125 107.023438 48.382812 C 106.929688 47.949219 106.886719 47.511719 106.890625 47.070312 C 106.898438 46.628906 106.953125 46.195312 107.058594 45.765625 C 107.160156 45.335938 107.3125 44.921875 107.511719 44.527344 C 107.710938 44.132812 107.949219 43.765625 108.230469 43.425781 C 108.511719 43.082031 108.828125 42.777344 109.179688 42.511719 C 109.53125 42.242188 109.910156 42.015625 110.3125 41.832031 L 110.3125 29.769531 L 65.960938 29.769531 L 65.960938 41.832031 C 66.363281 42.015625 66.738281 42.242188 67.089844 42.511719 C 67.441406 42.777344 67.757812 43.082031 68.039062 43.425781 C 68.320312 43.765625 68.5625 44.132812 68.761719 44.527344 C 68.957031 44.921875 69.109375 45.335938 69.214844 45.765625 C 69.320312 46.195312 69.375 46.628906 69.378906 47.070312 C 69.386719 47.511719 69.339844 47.949219 69.246094 48.382812 C 69.152344 48.8125 69.011719 49.230469 68.824219 49.628906 C 68.636719 50.03125 68.40625 50.402344 68.132812 50.75 C 67.859375 51.097656 67.550781 51.410156 67.207031 51.6875 C 66.863281 51.964844 66.492188 52.203125 66.09375 52.394531 C 65.699219 52.589844 65.28125 52.734375 64.851562 52.832031 C 64.421875 52.933594 63.984375 52.984375 63.542969 52.984375 C 63.101562 52.984375 62.664062 52.933594 62.234375 52.832031 C 61.804688 52.734375 61.390625 52.589844 60.992188 52.394531 C 60.59375 52.203125 60.222656 51.964844 59.878906 51.6875 C 59.535156 51.410156 59.226562 51.097656 58.953125 50.75 C 58.679688 50.402344 58.449219 50.03125 58.261719 49.628906 C 58.074219 49.230469 57.933594 48.8125 57.839844 48.382812 C 57.746094 47.949219 57.699219 47.511719 57.707031 47.070312 C 57.710938 46.628906 57.765625 46.195312 57.871094 45.765625 C 57.976562 45.335938 58.128906 44.921875 58.324219 44.527344 C 58.523438 44.132812 58.765625 43.765625 59.046875 43.425781 C 59.328125 43.082031 59.644531 42.777344 59.996094 42.511719 C 60.347656 42.242188 60.722656 42.015625 61.125 41.832031 L 61.125 29.769531 L 51.484375 29.769531 C 50.742188 29.769531 50.007812 29.835938 49.277344 29.96875 C 48.546875 30.097656 47.835938 30.296875 47.140625 30.554688 C 46.445312 30.816406 45.78125 31.136719 45.144531 31.519531 C 44.507812 31.898438 43.914062 32.332031 43.355469 32.820312 C 42.796875 33.308594 42.289062 33.84375 41.828125 34.425781 C 41.363281 35.003906 40.960938 35.621094 40.609375 36.277344 C 40.261719 36.929688 39.972656 37.609375 39.746094 38.316406 C 39.515625 39.019531 39.355469 39.742188 39.257812 40.476562 L 33 87.695312 L 32.710938 90.144531 L 30 110.558594 C 34.675781 112.175781 41.550781 113.273438 50.578125 113.273438 C 63.15625 113.273438 77.640625 111.175781 92.375 107.175781 C 118.984375 100.015625 137.5625 89.273438 146.273438 80.503906 Z M 104.550781 64.867188 L 96.570312 94.65625 C 95.636719 98.152344 90.726562 98.300781 89.585938 94.867188 L 84.722656 80.230469 L 70.085938 75.367188 C 66.65625 74.226562 66.800781 69.320312 70.296875 68.382812 L 100.085938 60.402344 C 100.394531 60.320312 100.710938 60.277344 101.03125 60.277344 C 101.351562 60.277344 101.664062 60.320312 101.972656 60.402344 C 102.28125 60.484375 102.574219 60.605469 102.851562 60.765625 C 103.128906 60.925781 103.382812 61.117188 103.609375 61.34375 C 103.835938 61.570312 104.027344 61.824219 104.1875 62.101562 C 104.347656 62.378906 104.46875 62.671875 104.550781 62.980469 C 104.632812 63.289062 104.675781 63.601562 104.675781 63.921875 C 104.675781 64.242188 104.632812 64.554688 104.550781 64.867188 Z M 104.550781 64.867188 " fill-opacity="1" fill-rule="nonzero"/><path fill="#ffffff" d="M 115.148438 28.351562 L 115.148438 29.769531 L 110.308594 29.769531 L 110.308594 28.351562 C 110.308594 27.625 110.273438 26.898438 110.203125 26.175781 C 110.132812 25.453125 110.027344 24.734375 109.886719 24.023438 C 109.742188 23.3125 109.566406 22.605469 109.355469 21.910156 C 109.148438 21.214844 108.902344 20.535156 108.625 19.863281 C 108.347656 19.191406 108.035156 18.535156 107.695312 17.894531 C 107.351562 17.253906 106.980469 16.628906 106.578125 16.027344 C 106.171875 15.421875 105.742188 14.839844 105.28125 14.277344 C 104.820312 13.714844 104.332031 13.179688 103.820312 12.664062 C 103.304688 12.152344 102.769531 11.664062 102.207031 11.203125 C 101.644531 10.742188 101.0625 10.308594 100.457031 9.90625 C 99.855469 9.503906 99.230469 9.128906 98.589844 8.785156 C 97.949219 8.445312 97.296875 8.132812 96.625 7.855469 C 95.953125 7.578125 95.269531 7.332031 94.574219 7.121094 C 93.878906 6.910156 93.175781 6.734375 92.464844 6.59375 C 91.75 6.449219 91.03125 6.34375 90.308594 6.273438 C 89.585938 6.203125 88.863281 6.167969 88.136719 6.167969 C 87.410156 6.167969 86.683594 6.203125 85.960938 6.273438 C 85.238281 6.34375 84.523438 6.449219 83.808594 6.59375 C 83.097656 6.734375 82.394531 6.910156 81.699219 7.121094 C 81.003906 7.332031 80.320312 7.578125 79.648438 7.855469 C 78.976562 8.132812 78.320312 8.445312 77.679688 8.785156 C 77.039062 9.128906 76.417969 9.503906 75.8125 9.90625 C 75.210938 10.308594 74.628906 10.742188 74.066406 11.203125 C 73.503906 11.664062 72.96875 12.152344 72.453125 12.664062 C 71.941406 13.179688 71.453125 13.714844 70.992188 14.277344 C 70.53125 14.839844 70.097656 15.421875 69.695312 16.027344 C 69.292969 16.628906 68.917969 17.253906 68.578125 17.894531 C 68.234375 18.535156 67.925781 19.191406 67.648438 19.863281 C 67.371094 20.535156 67.125 21.214844 66.914062 21.910156 C 66.703125 22.605469 66.527344 23.3125 66.386719 24.023438 C 66.246094 24.734375 66.140625 25.453125 66.070312 26.175781 C 65.996094 26.898438 65.960938 27.625 65.960938 28.351562 L 65.960938 29.769531 L 61.125 29.769531 L 61.125 28.351562 C 61.121094 27.464844 61.164062 26.582031 61.246094 25.699219 C 61.332031 24.816406 61.460938 23.941406 61.632812 23.070312 C 61.800781 22.199219 62.015625 21.339844 62.269531 20.492188 C 62.523438 19.644531 62.820312 18.808594 63.160156 17.992188 C 63.496094 17.171875 63.875 16.371094 64.289062 15.585938 C 64.707031 14.804688 65.160156 14.042969 65.652344 13.308594 C 66.140625 12.570312 66.667969 11.859375 67.230469 11.171875 C 67.789062 10.484375 68.382812 9.828125 69.007812 9.203125 C 69.636719 8.574219 70.289062 7.976562 70.972656 7.414062 C 71.660156 6.851562 72.371094 6.324219 73.105469 5.832031 C 73.84375 5.335938 74.601562 4.882812 75.382812 4.464844 C 76.164062 4.042969 76.964844 3.664062 77.78125 3.324219 C 78.601562 2.984375 79.433594 2.6875 80.28125 2.429688 C 81.128906 2.171875 81.988281 1.957031 82.855469 1.785156 C 83.726562 1.609375 84.601562 1.480469 85.484375 1.394531 C 86.367188 1.304688 87.25 1.261719 88.136719 1.261719 C 89.023438 1.261719 89.90625 1.304688 90.789062 1.394531 C 91.671875 1.480469 92.546875 1.609375 93.414062 1.785156 C 94.285156 1.957031 95.144531 2.171875 95.992188 2.429688 C 96.839844 2.6875 97.671875 2.984375 98.492188 3.324219 C 99.308594 3.664062 100.109375 4.042969 100.890625 4.464844 C 101.671875 4.882812 102.429688 5.335938 103.167969 5.832031 C 103.902344 6.324219 104.613281 6.851562 105.296875 7.414062 C 105.980469 7.976562 106.636719 8.574219 107.261719 9.203125 C 107.890625 9.828125 108.484375 10.484375 109.042969 11.171875 C 109.605469 11.859375 110.132812 12.570312 110.621094 13.308594 C 111.113281 14.042969 111.566406 14.804688 111.984375 15.585938 C 112.398438 16.371094 112.777344 17.171875 113.113281 17.992188 C 113.449219 18.808594 113.746094 19.644531 114.003906 20.492188 C 114.257812 21.339844 114.472656 22.199219 114.640625 23.070312 C 114.8125 23.941406 114.941406 24.816406 115.023438 25.699219 C 115.109375 26.582031 115.148438 27.464844 115.148438 28.351562 Z M 115.148438 28.351562 " fill-opacity="1" fill-rule="nonzero"/><g clip-path="url(#5fe1001f8a)"><path fill="#f00480" d="M 171.144531 74.910156 C 168.980469 66.941406 160.273438 61.460938 147.4375 58.75 C 153.144531 60.910156 156.886719 64.136719 158.015625 68.296875 C 159.628906 74.328125 155.53125 81.390625 147.308594 88.324219 C 135.988281 97.90625 116.796875 107.257812 94.058594 113.386719 C 67.808594 120.480469 43.457031 121.480469 29.136719 117.03125 C 22.042969 114.835938 17.398438 111.355469 16.140625 106.613281 C 14.269531 99.839844 19.71875 91.710938 30.167969 83.972656 C 11.65625 95.582031 1.269531 108.902344 4.269531 119.964844 C 6.335938 127.640625 14.527344 133.027344 26.652344 135.832031 L 26.394531 137.832031 C 26.179688 139.390625 26.277344 140.925781 26.6875 142.445312 C 26.847656 143.105469 27.066406 143.75 27.335938 144.375 C 27.609375 145 27.929688 145.601562 28.300781 146.171875 C 28.671875 146.742188 29.085938 147.28125 29.546875 147.785156 C 30.007812 148.285156 30.503906 148.746094 31.042969 149.167969 C 31.578125 149.585938 32.148438 149.957031 32.746094 150.285156 C 33.347656 150.609375 33.96875 150.882812 34.613281 151.101562 C 35.257812 151.324219 35.914062 151.488281 36.589844 151.601562 C 37.261719 151.710938 37.9375 151.765625 38.621094 151.765625 L 141.632812 151.765625 C 142.070312 151.765625 142.507812 151.742188 142.941406 151.695312 C 143.375 151.648438 143.808594 151.582031 144.234375 151.488281 C 144.664062 151.398438 145.082031 151.28125 145.5 151.144531 C 145.914062 151.007812 146.320312 150.847656 146.71875 150.667969 C 147.117188 150.488281 147.507812 150.285156 147.882812 150.066406 C 148.261719 149.84375 148.625 149.601562 148.976562 149.34375 C 149.328125 149.082031 149.664062 148.804688 149.984375 148.507812 C 150.308594 148.210938 150.613281 147.898438 150.902344 147.570312 C 151.1875 147.238281 151.460938 146.898438 151.710938 146.539062 C 151.964844 146.183594 152.195312 145.8125 152.40625 145.429688 C 152.621094 145.046875 152.8125 144.65625 152.984375 144.253906 C 153.152344 143.847656 153.304688 143.4375 153.429688 143.019531 C 153.558594 142.601562 153.660156 142.175781 153.742188 141.746094 C 153.824219 141.316406 153.882812 140.886719 153.917969 140.449219 C 153.957031 140.011719 153.96875 139.578125 153.957031 139.140625 C 153.945312 138.703125 153.914062 138.265625 153.855469 137.832031 L 150.824219 115 L 149.890625 107.839844 C 165.464844 97 173.882812 85.003906 171.144531 74.910156 Z M 171.144531 74.910156 " fill-opacity="1" fill-rule="nonzero"/></g><g clip-path="url(#d66788f3b5)"><path stroke-linecap="butt" transform="matrix(0.973425, -0.0697495, 0.0697495, 0.973425, 132.954711, 46.099896)" fill="none" stroke-linejoin="miter" d="M 35.518534 43.598653 C 34.402616 43.715325 33.075125 43.704476 31.531784 43.569813 C 29.992436 43.435435 28.684734 42.924393 27.608394 42.040677 C 26.493572 41.077959 25.829071 39.991006 25.615177 38.775824 C 25.404988 37.564921 25.49107 36.475569 25.876843 35.516039 C 26.298012 34.39853 27.386412 32.369748 29.138336 29.425416 C 30.890259 26.481084 33.284638 22.467202 36.325179 17.388048 C 37.094608 16.002551 37.846936 14.575701 38.577598 13.115194 C 39.308547 11.650696 40.041771 10.210437 40.769859 8.785862 C 37.961984 8.937802 35.727324 9.042532 34.073862 9.100622 C 32.4204 9.158713 31.099477 9.112219 30.119362 8.957719 C 29.139248 8.803219 28.24244 8.494173 27.432643 8.034859 C 26.048876 7.185296 25.200762 5.916644 24.892867 4.221205 C 24.777811 3.530769 24.74805 2.714019 24.807578 1.771242 C 24.867106 0.828464 25.06633 0.0642377 25.412662 -0.51288 C 25.838022 -1.240839 26.473225 -1.761142 27.317985 -2.069798 C 28.166737 -2.378168 29.014046 -2.610397 29.859626 -2.762491 C 31.514855 -3.069255 33.854748 -3.186508 36.875027 -3.110545 C 39.89502 -3.03059 43.833003 -2.993205 48.680705 -2.994971 C 50.52778 -2.954918 52.346596 -2.800515 54.137154 -2.531764 C 55.927712 -2.263012 57.360284 -1.590532 58.438577 -0.510045 C 58.861683 -0.0864645 59.159258 0.576921 59.331301 1.480111 C 59.507338 2.383587 59.572146 3.327248 59.533712 4.311666 C 59.495564 5.292092 59.36191 6.1493 59.129043 6.879012 C 58.898751 7.572793 58.552965 8.254286 58.0914 8.927482 C 57.629835 9.600679 57.204761 10.324645 56.820743 11.091681 C 54.398514 15.942263 52.280158 20.080259 50.469665 23.505954 C 48.663165 26.931936 47.082641 29.836382 45.735791 32.223856 C 48.470385 32.030549 50.769222 31.870225 52.636868 31.735185 C 54.500522 31.599859 56.031339 31.62929 57.225612 31.819199 C 58.112197 31.934894 58.985077 32.129864 59.852807 32.396698 C 60.72025 32.667524 61.362639 33.167011 61.787672 33.899722 C 62.131751 34.474143 62.354017 35.236468 62.451051 36.178425 C 62.548085 37.120382 62.555035 37.919446 62.479887 38.576189 C 62.250226 40.269226 61.442316 41.57572 60.05587 42.499664 C 59.285498 43.002256 58.397953 43.347976 57.396943 43.5411 C 56.399926 43.734511 55.040757 43.829741 53.327422 43.827361 C 51.6138 43.828973 49.337251 43.79025 46.485511 43.714324 C 43.638049 43.634693 39.980964 43.597371 35.518534 43.598653 Z M 77.253663 41.288097 C 74.789572 40.786492 72.596505 39.806707 70.670756 38.344465 C 68.745007 36.882223 67.176659 35.080416 65.96514 32.947031 C 64.753907 30.809652 63.993865 28.479882 63.684728 25.961711 C 63.375878 23.439548 63.609433 20.908095 64.37741 18.366781 C 65.185623 15.711976 66.436629 13.429995 68.130144 11.52483 C 69.823659 9.619665 71.779167 8.090421 73.992674 6.936811 C 76.202189 5.782914 78.51257 5.013457 80.919824 4.628154 C 83.323086 4.242564 85.661238 4.261624 87.934279 4.685334 C 90.203327 5.108758 92.234161 5.944493 94.026495 7.19653 C 95.814837 8.448282 97.207831 10.12115 98.209183 12.219412 C 99.210536 14.317674 99.635166 16.848133 99.479081 19.810504 C 99.404081 21.08123 98.855154 22.189585 97.836581 23.131863 C 96.814015 24.073854 95.496609 24.874332 93.880657 25.529019 C 92.26499 26.179713 90.49137 26.682651 88.568638 27.026428 C 86.64562 27.374196 84.711509 27.596771 82.766303 27.69415 C 80.821384 27.787537 79.060426 27.777732 77.48343 27.664734 C 78.213299 29.743544 79.194853 31.11004 80.428091 31.764225 C 81.66133 32.418409 83.076329 32.608082 84.672518 32.34123 C 86.268992 32.070386 87.933959 31.571701 89.664 30.836906 C 91.127694 30.066974 92.332056 29.780072 93.273378 29.971921 C 94.218692 30.164056 95.170721 30.934529 96.133458 32.283626 C 96.787176 33.129033 97.063296 34.091848 96.970087 35.168651 C 96.872886 36.245167 96.401284 37.170457 95.555565 37.940527 C 94.476521 38.942678 93.159973 39.731179 91.601929 40.305744 C 90.039607 40.884016 88.40546 41.288599 86.691502 41.518922 C 84.981537 41.749532 83.293847 41.837273 81.640697 41.779012 C 79.987546 41.720751 78.522349 41.559584 77.253663 41.288097 Z M 77.482739 20.561862 C 77.482739 20.561862 77.918769 20.581067 78.782843 20.618904 C 79.646917 20.65674 80.724876 20.6778 82.017007 20.678089 C 83.305146 20.678093 84.606133 20.610797 85.911983 20.475631 C 87.221825 20.340751 88.310394 20.101733 89.173984 19.754297 C 90.041566 19.407147 90.474575 18.908472 90.473296 18.254279 C 90.473286 17.02232 90.039461 16.076295 89.175239 15.424474 C 88.307311 14.768376 87.231144 14.386284 85.943316 14.269929 C 84.651496 14.153288 83.352201 14.308988 82.046002 14.729045 C 80.735525 15.152808 79.649703 15.857519 78.780838 16.838614 C 77.915965 17.819995 77.481935 19.060982 77.482739 20.561862 Z M 105.303845 41.231357 C 103.994949 40.961002 102.966404 40.586336 102.218496 40.103366 C 101.46631 39.624103 101.015047 38.865434 100.861 37.823082 C 100.746255 37.016294 100.688624 35.860464 100.687819 34.359584 C 100.687015 32.858704 100.696597 30.820841 100.716852 28.242001 C 100.733114 25.662876 100.705325 22.41044 100.629492 18.484409 C 100.627892 16.714608 100.589166 15.182921 100.513028 13.893339 C 100.43689 12.603757 100.483906 11.499568 100.658641 10.573071 C 100.829098 9.65028 101.245341 8.88154 101.899387 8.266277 C 102.514641 7.688364 103.419311 7.27164 104.612827 7.024089 C 105.806629 6.772546 107.056001 6.69754 108.365507 6.791371 C 109.674727 6.889194 110.808529 7.138977 111.770907 7.541005 C 112.732999 7.947026 113.291535 8.496684 113.446516 9.189981 C 114.14046 8.689939 114.745975 8.303946 115.263059 8.032004 C 115.78385 7.764341 116.350821 7.580245 116.967677 7.483993 C 117.584534 7.387742 118.374481 7.34001 119.333527 7.34051 C 120.605696 7.339369 121.931445 7.486531 123.319331 7.774584 C 124.703224 8.062352 125.994943 8.62843 127.186218 9.476239 C 128.381484 10.324334 129.321709 11.595573 130.015163 13.286535 C 130.901594 15.364524 131.489601 18.023063 131.775764 21.253883 C 132.065633 24.488982 132.208007 27.990401 132.210584 31.762706 C 132.211078 33.379938 132.143477 34.7154 132.007497 35.773087 C 131.87123 36.834765 131.380523 37.746647 130.534805 38.516718 C 129.958344 39.057282 129.169179 39.430115 128.166738 39.643202 C 127.16829 39.856575 126.1659 39.844943 125.167267 39.612871 C 124.164355 39.384506 123.356275 38.901238 122.742456 38.17105 C 122.242102 37.593457 121.904864 37.035578 121.730742 36.497412 C 121.55662 35.959247 121.481761 35.323859 121.498181 34.590675 C 121.518306 33.861771 121.528495 32.935522 121.528174 31.819915 C 121.528476 30.471604 121.490272 29.15665 121.414134 27.867069 C 121.337996 26.577487 121.202569 25.16327 121.008139 23.620426 C 120.853634 22.080443 120.526795 20.9294 120.028195 20.159314 C 119.525603 19.388942 118.951346 19.002685 118.297152 19.003965 C 116.8727 19.00222 115.851602 19.75571 115.234431 21.256452 C 114.621252 22.757479 114.312426 25.219332 114.311658 28.646289 C 114.312472 31.379128 114.234733 33.416121 114.081862 34.765538 C 113.925284 36.110677 113.696906 37.169768 113.389029 37.938248 C 112.809233 39.365422 111.743024 40.356454 110.182132 40.914764 C 108.625233 41.47336 107.000563 41.577655 105.303845 41.231357 Z M 154.893597 43.885759 C 152.814952 43.885294 150.794252 43.636168 148.831785 43.134389 C 146.869032 42.636603 145.096585 41.723073 143.518435 40.394086 C 141.940285 39.065099 140.682797 37.181232 139.738558 34.733927 C 138.794033 32.290615 138.285129 29.144157 138.207853 25.294268 C 138.208328 24.447581 138.218243 23.469146 138.238171 22.350976 C 138.257812 21.236799 138.284618 19.966632 138.322581 18.540762 L 138.266401 18.54075 C 136.91809 18.540448 135.82053 18.176888 134.974007 17.446078 C 133.821837 16.444568 133.242644 15.175121 133.2447 13.634317 C 133.242141 12.32593 133.648461 11.303666 134.455101 10.574938 C 135.417482 9.688827 136.64897 9.247366 138.14985 9.246562 L 138.671436 9.247819 C 138.707817 8.516066 138.746201 7.756367 138.786873 6.964728 C 138.823267 6.176796 138.861949 5.356924 138.902348 4.513098 C 138.941279 3.857773 138.938569 3.223542 138.90249 2.606984 C 138.862418 1.99014 138.89962 1.414949 139.01866 0.873712 C 139.209053 0.0647109 139.584775 -0.586546 140.142406 -1.088331 C 140.700037 -1.590115 141.346893 -1.937029 142.07499 -2.129645 C 142.885796 -2.356463 143.856856 -2.523644 144.991307 -2.618923 C 146.125757 -2.714203 147.195147 -2.629551 148.194912 -2.35727 C 149.198956 -2.088695 149.910919 -1.55212 150.334509 -0.743266 C 150.680851 -0.0884253 150.834065 0.853544 150.793864 2.086635 C 150.757655 3.320012 150.699718 4.800631 150.619766 6.532486 C 150.58259 6.995318 150.565661 7.455587 150.564702 7.917002 C 150.563743 8.378416 150.543967 8.82243 150.505659 9.245052 L 151.544838 9.247281 C 153.238498 9.244238 154.507992 9.728466 155.354178 10.687986 C 156.204071 11.651785 156.625894 12.709311 156.627346 13.865129 C 156.624945 14.402685 156.547546 14.922828 156.395149 15.425558 C 156.088068 16.462959 155.683814 17.176378 155.182674 17.561823 C 154.645291 18.061046 154.008148 18.328398 153.278945 18.368444 C 152.544306 18.484346 151.757779 18.54035 150.911093 18.539875 L 150.216689 18.542286 C 150.138648 21.927589 150.196761 24.756831 150.391027 27.03001 C 150.581586 29.298911 151.092807 31.012931 151.920984 32.167793 C 152.749161 33.322655 154.028045 33.899852 155.761628 33.89967 C 156.415821 33.898391 156.941324 34.237012 157.346694 34.908121 C 157.751777 35.583223 158.001406 36.411714 158.099857 37.389889 C 158.194031 38.37177 158.14704 39.363601 157.954892 40.365095 C 157.762744 41.366589 157.405802 42.203785 156.884065 42.876683 C 156.36632 43.549867 155.700074 43.887366 154.893597 43.885759 Z M 172.844851 41.287552 C 170.380473 40.789939 168.187692 39.806161 166.261943 38.343919 C 164.340186 36.881963 162.771552 35.084149 161.556327 32.946485 C 160.345094 30.809107 159.585052 28.479336 159.275916 25.961165 C 158.971057 23.439288 159.200621 20.907549 159.968598 18.366235 C 160.77681 15.711431 162.027531 13.433442 163.721046 11.528277 C 165.414561 9.623112 167.370354 8.089875 169.583861 6.936265 C 171.797368 5.782655 174.103757 5.012912 176.511012 4.627608 C 178.918266 4.242305 181.256418 4.261365 183.525466 4.684789 C 185.798507 5.108499 187.825349 5.943947 189.617683 7.195985 C 191.406024 8.447737 192.803011 10.12089 193.804363 12.219152 C 194.801723 14.317128 195.226353 16.847588 195.074261 19.810244 C 194.995268 21.080684 194.446342 22.189039 193.427768 23.131317 C 192.409194 24.073595 191.087796 24.873787 189.471844 25.528474 C 187.855892 26.18316 186.08655 26.682392 184.159539 27.029874 C 182.236808 27.373651 180.302696 27.596225 178.357491 27.693605 C 176.416564 27.787278 174.655606 27.777473 173.074617 27.664189 C 173.808479 29.743284 174.790033 31.109781 176.019279 31.763679 C 177.252517 32.417863 178.667517 32.607537 180.263705 32.340685 C 181.860179 32.06984 183.525147 31.571156 185.258894 30.840639 C 186.718595 30.070421 187.923243 29.779526 188.864565 29.971375 C 189.809879 30.16351 190.761909 30.933983 191.724645 32.28308 C 192.378363 33.128487 192.658475 34.091588 192.561274 35.168105 C 192.464074 36.244622 191.992471 37.169911 191.146752 37.939981 C 190.067708 38.942132 188.75116 39.730633 187.192831 40.309191 C 185.634787 40.883756 183.996647 41.288054 182.282689 41.518377 C 180.572724 41.748986 178.889027 41.837014 177.231884 41.778467 C 175.578733 41.720206 174.113536 41.559038 172.844851 41.287552 Z M 173.073927 20.561317 C 173.073927 20.561317 173.509956 20.580521 174.37403 20.618358 C 175.242096 20.656481 176.320056 20.67754 177.608195 20.677544 C 178.896333 20.677547 180.19732 20.610252 181.50317 20.475086 C 182.813012 20.340206 183.901581 20.101187 184.765171 19.753752 C 185.632754 19.406602 186.065762 18.907927 186.064483 18.253733 C 186.064474 17.021774 185.634354 16.080027 184.766426 15.423929 C 183.902491 14.768116 182.822331 14.385739 181.534503 14.269384 C 180.242684 14.152743 178.943388 14.308443 177.636903 14.732492 C 176.326712 15.152262 175.24089 15.856973 174.376017 16.838354 C 173.507152 17.819449 173.077114 19.060723 173.073927 20.561317 Z M 212.791684 43.88504 C 210.712752 43.888567 208.692339 43.635449 206.729586 43.137663 C 204.767119 42.635884 202.994671 41.722354 201.416521 40.393367 C 199.838371 39.06438 198.576891 37.180227 197.636358 34.737201 C 196.692119 32.289896 196.183215 29.143439 196.105653 25.297541 C 196.065572 23.448738 196.104645 20.887299 196.222585 17.617215 C 196.336532 14.346845 196.529149 9.978567 196.796442 4.512093 C 196.835373 3.856768 196.836655 3.222823 196.796584 2.605979 C 196.760505 1.989421 196.797706 1.41423 196.912753 0.872707 C 197.106853 0.0679844 197.482862 -0.587265 198.040493 -1.08905 C 198.597837 -1.586842 199.240701 -1.934042 199.97279 -2.126371 C 200.779889 -2.357468 201.754657 -2.52037 202.889393 -2.619642 C 204.023843 -2.714922 205.092947 -2.626278 206.092998 -2.357989 C 207.09305 -2.0897 207.804727 -1.549132 208.228317 -0.740279 C 208.574945 -0.0894303 208.731865 0.856818 208.69195 2.085916 C 208.651749 3.319007 208.593812 4.799627 208.517852 6.531767 C 208.327487 11.036645 208.171748 15.002264 208.054915 18.424917 C 207.941788 21.851848 207.997898 24.709036 208.230943 27.001046 C 208.460282 29.288777 208.990894 31.012212 209.81907 32.167074 C 210.643255 33.32165 211.926131 33.899133 213.655722 33.898665 C 214.309915 33.897386 214.839411 34.236293 215.24478 34.907403 C 215.649864 35.582504 215.899492 36.410996 215.993665 37.392877 C 216.091831 38.375044 216.045126 39.362882 215.848986 40.36409 C 215.656838 41.365584 215.303888 42.203066 214.782151 42.875964 C 214.264406 43.549148 213.59816 43.886647 212.791684 43.88504 Z M 212.791684 43.88504 " stroke="#010768" stroke-width="10.19877" stroke-opacity="1" stroke-miterlimit="4"/></g><g clip-path="url(#80f47475a3)"><path stroke-linecap="butt" transform="matrix(0.973425, -0.0697495, 0.0697495, 0.973425, 132.954711, 46.099896)" fill="none" stroke-linejoin="miter" d="M 73.264112 94.502134 C 70.76364 94.732281 68.202213 94.637029 65.588102 94.212958 C 62.969713 93.792592 60.543618 92.984716 58.30982 91.78933 C 56.079727 90.598222 54.250679 89.018509 52.826381 87.05447 C 52.209191 86.091293 51.76656 84.988134 51.499061 83.737008 C 51.227568 82.485596 51.266339 81.272468 51.615372 80.097622 C 51.960127 78.926482 52.673276 77.99041 53.750254 77.297104 C 55.09904 76.45072 56.309707 76.019805 57.386535 76.000654 C 58.467356 75.98179 59.477394 76.222704 60.420929 76.719692 C 61.360186 77.220385 62.237529 77.857094 63.04526 78.625253 C 64.085719 79.281676 65.135021 79.926693 66.193166 80.560305 C 67.251311 81.193918 68.291846 81.513262 69.311064 81.514061 C 70.330282 81.51486 71.282613 80.937022 72.168057 79.780548 C 72.707817 78.856129 72.813798 78.049105 72.486286 77.355484 C 72.158775 76.661864 71.620213 76.057456 70.866895 75.537982 C 70.11757 75.018794 69.319465 74.564331 68.472008 74.182576 C 67.624837 73.796828 66.93393 73.470433 66.395579 73.19911 C 64.661339 72.312395 62.997519 71.506971 61.400699 70.774568 C 59.803879 70.042164 58.371058 69.205137 57.098245 68.263202 C 55.829424 67.321553 54.826726 66.138134 54.098136 64.713518 C 53.365553 63.288616 52.998942 61.460558 52.998301 59.229343 C 53.036877 56.33881 53.791148 53.876772 55.253415 51.838663 C 56.715968 49.796563 58.687744 48.20829 61.168742 47.073847 C 63.653732 45.939689 66.434046 45.332317 69.51339 45.25601 C 72.207437 45.292545 74.774796 45.641035 77.220032 46.293779 C 79.664981 46.950516 81.827813 47.960238 83.716226 49.327508 C 85.600646 50.694492 87.083723 52.510253 88.160893 54.782489 C 88.739291 55.783015 88.969193 56.830802 88.854306 57.930129 C 88.735713 59.025177 88.333684 59.987555 87.640236 60.816691 C 86.947075 61.641834 85.984769 62.190867 84.753605 62.459797 C 83.56234 62.843947 82.38712 62.892164 81.231937 62.604733 C 80.076755 62.317302 78.950129 61.855351 77.856052 61.219164 C 76.757983 60.582691 75.709253 59.929688 74.710148 59.256165 C 73.707051 58.582355 72.753827 58.05257 71.850477 57.66681 C 70.946841 57.285043 70.107878 57.176773 69.337009 57.350272 C 68.570133 57.524058 67.855057 58.150999 67.204045 59.227962 C 66.815748 59.998705 66.838407 60.690546 67.259759 61.30662 C 67.685103 61.92298 68.301249 62.45269 69.108483 62.891756 C 69.915431 63.334815 70.741781 63.731109 71.591813 64.076932 C 72.437852 64.422469 73.111372 64.711503 73.612374 64.944034 C 75.535712 65.711872 77.383742 66.57865 79.152756 67.540089 C 80.925764 68.501813 82.513093 69.590685 83.91503 70.80271 C 85.32096 72.015022 86.430271 73.390673 87.234691 74.933083 C 88.04339 76.471788 88.411445 78.223705 88.335149 80.184556 C 88.256338 83.188579 87.485799 85.709645 86.023531 87.747754 C 84.560978 89.789855 82.702992 91.35819 80.453566 92.453046 C 78.199861 93.551608 75.803377 94.234638 73.264112 94.502134 Z M 95.140446 93.521467 C 93.83155 93.251113 92.803006 92.876447 92.050819 92.397183 C 91.298919 91.913927 90.847656 91.155258 90.693323 90.116899 C 90.578864 89.306119 90.493 88.152278 90.436016 86.651386 C 90.375039 85.150207 90.356674 83.110341 90.376929 80.531502 C 90.397184 77.952662 90.425575 74.700239 90.462101 70.774233 C 90.425554 68.428085 90.339108 66.05027 90.202477 63.644782 C 90.069839 61.23958 89.983393 58.861766 89.942853 56.515331 C 89.903731 54.205114 89.924134 52.240258 89.999782 50.624469 C 90.079423 49.008966 90.424165 47.894006 91.042279 47.276169 C 91.656115 46.662038 92.513163 46.237889 93.609145 46.007427 C 94.705127 45.776965 95.843856 45.677979 97.016774 45.717881 C 98.189693 45.757783 99.200602 45.930541 100.04551 46.235869 C 100.816564 46.507814 101.48976 46.969379 102.068805 47.624842 C 102.644144 48.276027 103.050035 49.16387 103.279067 50.279814 C 103.435465 51.009329 103.480635 51.779028 103.422563 52.589485 C 103.364777 53.395949 103.357748 54.222101 103.397197 55.071648 C 103.47188 56.493551 103.530319 57.862123 103.569095 59.169092 C 103.607586 60.480053 103.646375 61.730842 103.685462 62.92146 C 104.454105 62.499002 105.338789 62.193206 106.339799 62.000081 C 107.340809 61.806956 108.282766 61.709923 109.169663 61.709266 C 112.977899 61.709263 115.942829 63.173734 118.060744 66.098401 C 119.406351 67.984569 120.409605 70.504321 121.062235 73.661078 C 121.714866 76.817834 122.044609 80.280511 122.043193 84.05253 C 122.043687 85.669762 121.9758 87.009217 121.839819 88.066903 C 121.707831 89.124876 121.217125 90.036758 120.371406 90.806828 C 119.484035 91.654171 118.366051 92.079688 117.021732 92.079672 C 115.673421 92.07937 114.540254 91.540705 113.614244 90.463103 C 113.11389 89.885511 112.776653 89.327631 112.602817 88.785473 C 112.432687 88.247594 112.353836 87.611919 112.373962 86.883015 C 112.394373 86.150118 112.400284 85.227576 112.403955 84.112254 C 112.400265 82.763657 112.362347 81.444711 112.286209 80.155129 C 112.210071 78.865548 112.074644 77.451331 111.883921 75.912765 C 111.729415 74.372782 111.402863 73.217747 110.90027 72.447375 C 110.40167 71.677289 109.823135 71.294738 109.168941 71.296018 C 107.744489 71.294273 106.551146 72.043447 105.588626 73.547534 C 104.626392 75.047628 104.145035 77.509157 104.144267 80.936113 C 104.145081 83.668952 104.071048 85.710223 103.91447 87.055362 C 103.761885 88.400787 103.529515 89.459592 103.221352 90.232064 C 102.682052 91.654115 101.623827 92.645719 100.046966 93.202884 C 98.469819 93.764042 96.833172 93.867479 95.140446 93.521467 Z M 132.719243 90.748566 C 130.139784 89.672876 128.099126 88.134181 126.597269 86.132481 C 125.099404 84.131068 124.078973 81.907039 123.539683 79.464673 C 123.000678 77.018315 122.9057 74.535554 123.250757 72.016104 C 123.5961 69.492661 124.358902 67.13557 125.53118 64.944257 C 126.703744 62.748952 128.227278 60.919891 130.093509 59.460494 C 131.960027 57.997105 134.163783 57.091596 136.704776 56.743965 C 139.241491 56.400041 142.050943 56.842123 145.132847 58.074202 C 147.439703 59.03405 149.355503 60.355128 150.876826 62.029165 C 152.398148 63.703202 153.532444 65.570216 154.283992 67.626501 C 155.035254 69.686779 155.43659 71.81428 155.495985 74.009576 C 155.551674 76.200594 155.29169 78.316824 154.716033 80.358268 C 154.101584 82.437062 153.078804 84.334107 151.655964 86.045983 C 150.233124 87.757859 148.508069 89.151127 146.488498 90.23035 C 144.468927 91.309572 142.282062 91.923351 139.935316 92.080242 C 137.588856 92.233141 135.180932 91.787728 132.719243 90.748566 Z M 135.488745 77.299159 C 135.760536 78.490399 136.281025 79.571046 137.050784 80.533116 C 137.820543 81.495187 138.751802 82.051488 139.848268 82.206299 C 140.944734 82.36111 142.092108 81.861453 143.282691 80.702766 C 144.168645 79.819205 144.796834 78.780736 145.159275 77.586786 C 145.525708 76.393123 145.710207 75.162346 145.709066 73.890176 C 145.707639 72.622 145.555048 71.447327 145.247014 70.369864 C 145.092034 69.676567 144.794472 68.957002 144.350621 68.20689 C 143.911049 67.453072 143.351108 66.811016 142.67964 66.269317 C 142.003894 65.731325 141.261931 65.445412 140.454323 65.403596 C 139.646429 65.365772 138.821618 65.732038 137.971908 66.501822 C 137.049736 67.386801 136.374483 68.466039 135.950428 69.735832 C 135.530365 71.00591 135.2968 72.305404 135.258004 73.630892 C 135.218923 74.960372 135.295932 76.181797 135.488745 77.299159 Z M 167.352061 97.391508 C 166.469952 97.661372 165.399654 97.813416 164.148864 97.852205 C 162.898075 97.890994 161.697222 97.792909 160.542027 97.561658 C 159.386832 97.330407 158.483195 96.948639 157.827697 96.408085 C 157.134564 95.83273 156.748959 94.773786 156.674873 93.231539 C 156.596509 91.692999 156.57639 89.845626 156.614517 87.689421 C 156.654086 85.457074 156.742422 83.216183 156.875533 80.966462 C 157.008929 78.712748 157.097265 76.471857 157.136835 74.23951 C 157.095465 70.504554 157.066494 67.436627 157.050207 65.031737 C 157.030214 62.622568 157.058875 60.710471 157.137048 59.283469 C 157.210942 57.860174 157.308143 56.783657 157.424658 56.053633 C 157.616806 55.052139 158.106616 54.320773 158.89409 53.859535 C 159.685842 53.394591 160.773864 53.051198 162.159015 52.817379 C 163.850461 52.509198 165.477941 52.589697 167.038034 53.050605 C 168.594135 53.511227 169.741505 54.29971 170.472161 55.415481 C 174.936845 54.26266 178.641565 54.251228 181.58575 55.389168 C 184.53022 56.523116 186.664033 58.497865 187.995745 61.306004 C 189.323178 64.117849 189.772146 67.484734 189.350347 71.411224 C 189.118596 73.525465 188.482843 75.229532 187.447366 76.519721 C 186.407897 77.809623 185.137218 78.798042 183.634756 79.492964 C 182.132581 80.183894 180.574562 80.6461 178.956708 80.879296 C 177.343133 81.108786 175.840238 81.193717 174.455722 81.138653 C 173.071492 81.079597 171.991555 80.974125 171.224182 80.818818 C 171.183981 82.051909 171.147188 83.34945 171.105246 84.718854 C 171.067582 86.084552 171.011647 87.537225 170.933449 89.076586 C 170.894493 89.84427 170.895462 90.614815 170.932647 91.383943 C 170.973539 92.157348 170.933452 92.884823 170.819511 93.578915 C 170.588571 94.617758 170.164044 95.446099 169.54593 96.063936 C 168.932094 96.678067 168.202231 97.119355 167.352061 97.391508 Z M 171.511919 71.930811 C 174.088992 72.199738 176.015367 72.141138 177.28306 71.754439 C 178.554459 71.372018 179.393299 70.753945 179.795016 69.907918 C 180.200725 69.062178 180.323273 68.135955 180.170072 67.137805 C 180.057081 66.138524 179.517127 65.385539 178.55363 64.887122 C 177.590419 64.384711 176.476877 64.076187 175.205019 63.960976 C 173.937153 63.846052 172.761361 63.902253 171.685341 64.134145 C 171.685187 66.096439 171.627284 68.696658 171.511919 71.930811 Z M 171.511919 71.930811 " stroke="#010768" stroke-width="10.19877" stroke-opacity="1" stroke-miterlimit="4"/></g><g fill="#ffffff" fill-opacity="1"><g transform="translate(158.248837, 84.402799)"><g><path d="M 12.328125 1.65625 C 11.234375 1.851562 9.9375 1.9375 8.4375 1.90625 C 6.9375 1.882812 5.628906 1.484375 4.515625 0.703125 C 3.359375 -0.160156 2.632812 -1.171875 2.34375 -2.328125 C 2.0625 -3.492188 2.070312 -4.566406 2.375 -5.546875 C 2.695312 -6.648438 3.613281 -8.695312 5.125 -11.6875 C 6.632812 -14.675781 8.6875 -18.75 11.28125 -23.90625 C 11.9375 -25.3125 12.566406 -26.75 13.171875 -28.21875 C 13.785156 -29.695312 14.394531 -31.15625 15 -32.59375 C 12.28125 -32.25 10.117188 -31.988281 8.515625 -31.8125 C 6.910156 -31.644531 5.625 -31.601562 4.65625 -31.6875 C 3.6875 -31.769531 2.789062 -32.007812 1.96875 -32.40625 C 0.5625 -33.132812 -0.347656 -34.304688 -0.765625 -35.921875 C -0.921875 -36.597656 -1.003906 -37.394531 -1.015625 -38.3125 C -1.023438 -39.226562 -0.878906 -39.984375 -0.578125 -40.578125 C -0.210938 -41.316406 0.363281 -41.863281 1.15625 -42.21875 C 1.957031 -42.582031 2.769531 -42.867188 3.59375 -43.078125 C 5.1875 -43.503906 7.453125 -43.78125 10.390625 -43.90625 C 13.335938 -44.039062 17.171875 -44.273438 21.890625 -44.609375 C 23.679688 -44.710938 25.457031 -44.691406 27.21875 -44.546875 C 28.988281 -44.410156 30.4375 -43.851562 31.5625 -42.875 C 32 -42.488281 32.332031 -41.863281 32.5625 -41 C 32.800781 -40.132812 32.9375 -39.222656 32.96875 -38.265625 C 33 -37.304688 32.925781 -36.460938 32.75 -35.734375 C 32.5625 -35.035156 32.265625 -34.34375 31.859375 -33.65625 C 31.460938 -32.96875 31.113281 -32.238281 30.8125 -31.46875 C 28.78125 -26.582031 27.003906 -22.40625 25.484375 -18.9375 C 23.960938 -15.476562 22.625 -12.539062 21.46875 -10.125 C 24.125 -10.507812 26.351562 -10.828125 28.15625 -11.078125 C 29.96875 -11.335938 31.460938 -11.421875 32.640625 -11.328125 C 33.503906 -11.273438 34.363281 -11.144531 35.21875 -10.9375 C 36.082031 -10.738281 36.75 -10.300781 37.21875 -9.625 C 37.59375 -9.070312 37.859375 -8.335938 38.015625 -7.421875 C 38.179688 -6.515625 38.25 -5.742188 38.21875 -5.109375 C 38.125 -3.441406 37.429688 -2.109375 36.140625 -1.109375 C 35.421875 -0.566406 34.582031 -0.171875 33.625 0.078125 C 32.664062 0.335938 31.351562 0.523438 29.6875 0.640625 C 28.019531 0.765625 25.796875 0.882812 23.015625 1 C 20.234375 1.125 16.671875 1.34375 12.328125 1.65625 Z M 12.328125 1.65625 "/></g></g></g><g fill="#ffffff" fill-opacity="1"><g transform="translate(196.008834, 81.697155)"><g><path d="M 15.03125 -0.796875 C 12.59375 -1.109375 10.382812 -1.910156 8.40625 -3.203125 C 6.425781 -4.492188 4.773438 -6.132812 3.453125 -8.125 C 2.128906 -10.113281 1.226562 -12.328125 0.75 -14.765625 C 0.28125 -17.203125 0.332031 -19.679688 0.90625 -22.203125 C 1.488281 -24.859375 2.539062 -27.171875 4.0625 -29.140625 C 5.59375 -31.109375 7.394531 -32.726562 9.46875 -34 C 11.539062 -35.28125 13.726562 -36.191406 16.03125 -36.734375 C 18.34375 -37.273438 20.617188 -37.421875 22.859375 -37.171875 C 25.109375 -36.921875 27.144531 -36.25 28.96875 -35.15625 C 30.800781 -34.0625 32.28125 -32.523438 33.40625 -30.546875 C 34.53125 -28.578125 35.113281 -26.148438 35.15625 -23.265625 C 35.175781 -22.015625 34.722656 -20.894531 33.796875 -19.90625 C 32.867188 -18.914062 31.640625 -18.046875 30.109375 -17.296875 C 28.578125 -16.546875 26.882812 -15.929688 25.03125 -15.453125 C 23.1875 -14.984375 21.320312 -14.632812 19.4375 -14.40625 C 17.550781 -14.175781 15.832031 -14.066406 14.28125 -14.078125 C 15.144531 -12.097656 16.203125 -10.832031 17.453125 -10.28125 C 18.703125 -9.738281 20.09375 -9.65625 21.625 -10.03125 C 23.164062 -10.40625 24.753906 -11.003906 26.390625 -11.828125 C 27.742188 -12.679688 28.890625 -13.046875 29.828125 -12.921875 C 30.765625 -12.804688 31.75 -12.128906 32.78125 -10.890625 C 33.476562 -10.097656 33.816406 -9.171875 33.796875 -8.109375 C 33.773438 -7.054688 33.378906 -6.128906 32.609375 -5.328125 C 31.628906 -4.273438 30.398438 -3.410156 28.921875 -2.734375 C 27.453125 -2.066406 25.890625 -1.5625 24.234375 -1.21875 C 22.578125 -0.875 20.941406 -0.671875 19.328125 -0.609375 C 17.710938 -0.554688 16.28125 -0.617188 15.03125 -0.796875 Z M 13.796875 -21 C 13.796875 -21 14.21875 -21.003906 15.0625 -21.015625 C 15.914062 -21.035156 16.96875 -21.09375 18.21875 -21.1875 C 19.46875 -21.28125 20.726562 -21.4375 22 -21.65625 C 23.269531 -21.882812 24.3125 -22.195312 25.125 -22.59375 C 25.945312 -23 26.332031 -23.515625 26.28125 -24.140625 C 26.195312 -25.335938 25.710938 -26.222656 24.828125 -26.796875 C 23.941406 -27.378906 22.863281 -27.679688 21.59375 -27.703125 C 20.332031 -27.734375 19.082031 -27.492188 17.84375 -26.984375 C 16.601562 -26.472656 15.59375 -25.707031 14.8125 -24.6875 C 14.03125 -23.675781 13.691406 -22.445312 13.796875 -21 Z M 13.796875 -21 "/></g></g></g><g fill="#ffffff" fill-opacity="1"><g transform="translate(231.970753, 79.120349)"><g><path d="M 6.375 -0.234375 C 5.070312 -0.398438 4.039062 -0.691406 3.28125 -1.109375 C 2.519531 -1.523438 2.03125 -2.226562 1.8125 -3.21875 C 1.632812 -4.007812 1.492188 -5.132812 1.390625 -6.59375 C 1.285156 -8.0625 1.15625 -10.050781 1 -12.5625 C 0.84375 -15.070312 0.582031 -18.234375 0.21875 -22.046875 C 0.101562 -23.765625 -0.0351562 -25.25 -0.203125 -26.5 C -0.367188 -27.75 -0.398438 -28.832031 -0.296875 -29.75 C -0.191406 -30.664062 0.160156 -31.445312 0.765625 -32.09375 C 1.304688 -32.695312 2.148438 -33.160156 3.296875 -33.484375 C 4.453125 -33.804688 5.664062 -33.96875 6.9375 -33.96875 C 8.21875 -33.976562 9.34375 -33.816406 10.3125 -33.484375 C 11.28125 -33.148438 11.863281 -32.648438 12.0625 -31.984375 C 12.695312 -32.523438 13.253906 -32.945312 13.734375 -33.25 C 14.222656 -33.550781 14.765625 -33.769531 15.359375 -33.90625 C 15.960938 -34.039062 16.734375 -34.144531 17.671875 -34.21875 C 18.898438 -34.300781 20.203125 -34.25 21.578125 -34.0625 C 22.953125 -33.875 24.242188 -33.410156 25.453125 -32.671875 C 26.671875 -31.929688 27.675781 -30.757812 28.46875 -29.15625 C 29.476562 -27.1875 30.238281 -24.640625 30.75 -21.515625 C 31.257812 -18.390625 31.644531 -14.992188 31.90625 -11.328125 C 32.019531 -9.753906 32.046875 -8.441406 31.984375 -7.390625 C 31.929688 -6.347656 31.519531 -5.429688 30.75 -4.640625 C 30.207031 -4.078125 29.457031 -3.65625 28.5 -3.375 C 27.550781 -3.09375 26.578125 -3.03125 25.578125 -3.1875 C 24.585938 -3.34375 23.769531 -3.757812 23.125 -4.4375 C 22.59375 -4.957031 22.222656 -5.472656 22.015625 -5.984375 C 21.804688 -6.492188 21.6875 -7.109375 21.65625 -7.828125 C 21.625 -8.546875 21.570312 -9.445312 21.5 -10.53125 C 21.40625 -11.84375 21.273438 -13.125 21.109375 -14.375 C 20.953125 -15.625 20.71875 -16.988281 20.40625 -18.46875 C 20.15625 -19.957031 19.757812 -21.054688 19.21875 -21.765625 C 18.6875 -22.472656 18.101562 -22.804688 17.46875 -22.765625 C 16.082031 -22.671875 15.140625 -21.867188 14.640625 -20.359375 C 14.148438 -18.859375 14.023438 -16.441406 14.265625 -13.109375 C 14.453125 -10.453125 14.515625 -8.457031 14.453125 -7.125 C 14.398438 -5.800781 14.25 -4.757812 14 -4 C 13.539062 -2.570312 12.570312 -1.53125 11.09375 -0.875 C 9.613281 -0.21875 8.039062 -0.00390625 6.375 -0.234375 Z M 6.375 -0.234375 "/></g></g></g><g fill="#ffffff" fill-opacity="1"><g transform="translate(263.830804, 76.837458)"><g><path d="M 22.96875 1.1875 C 20.945312 1.332031 18.960938 1.226562 17.015625 0.875 C 15.066406 0.53125 13.273438 -0.234375 11.640625 -1.421875 C 10.003906 -2.609375 8.644531 -4.351562 7.5625 -6.65625 C 6.488281 -8.96875 5.773438 -12 5.421875 -15.75 C 5.359375 -16.570312 5.296875 -17.523438 5.234375 -18.609375 C 5.179688 -19.703125 5.128906 -20.941406 5.078125 -22.328125 L 5.015625 -22.328125 C 3.703125 -22.234375 2.601562 -22.507812 1.71875 -23.15625 C 0.53125 -24.0625 -0.113281 -25.265625 -0.21875 -26.765625 C -0.3125 -28.035156 0.0078125 -29.054688 0.75 -29.828125 C 1.613281 -30.765625 2.78125 -31.285156 4.25 -31.390625 L 4.75 -31.421875 C 4.738281 -32.128906 4.722656 -32.867188 4.703125 -33.640625 C 4.691406 -34.410156 4.675781 -35.207031 4.65625 -36.03125 C 4.644531 -36.675781 4.597656 -37.296875 4.515625 -37.890625 C 4.441406 -38.492188 4.441406 -39.0625 4.515625 -39.59375 C 4.640625 -40.382812 4.953125 -41.039062 5.453125 -41.5625 C 5.960938 -42.09375 6.566406 -42.476562 7.265625 -42.71875 C 8.046875 -43.007812 8.984375 -43.238281 10.078125 -43.40625 C 11.179688 -43.582031 12.226562 -43.570312 13.21875 -43.375 C 14.207031 -43.175781 14.941406 -42.695312 15.421875 -41.9375 C 15.796875 -41.320312 16.007812 -40.414062 16.0625 -39.21875 C 16.113281 -38.019531 16.160156 -36.570312 16.203125 -34.875 C 16.191406 -34.4375 16.203125 -33.988281 16.234375 -33.53125 C 16.265625 -33.082031 16.28125 -32.65625 16.28125 -32.25 L 17.28125 -32.3125 C 18.925781 -32.4375 20.195312 -32.050781 21.09375 -31.15625 C 21.988281 -30.28125 22.476562 -29.285156 22.5625 -28.171875 C 22.59375 -27.648438 22.550781 -27.140625 22.4375 -26.640625 C 22.21875 -25.597656 21.875 -24.875 21.40625 -24.46875 C 20.914062 -23.9375 20.320312 -23.628906 19.625 -23.546875 C 18.914062 -23.378906 18.148438 -23.269531 17.328125 -23.21875 L 16.640625 -23.15625 C 16.796875 -19.863281 17.046875 -17.117188 17.390625 -14.921875 C 17.742188 -12.722656 18.363281 -11.09375 19.25 -10.03125 C 20.132812 -8.96875 21.421875 -8.492188 23.109375 -8.609375 C 23.742188 -8.660156 24.28125 -8.367188 24.71875 -7.734375 C 25.164062 -7.097656 25.46875 -6.304688 25.625 -5.359375 C 25.789062 -4.410156 25.816406 -3.441406 25.703125 -2.453125 C 25.585938 -1.472656 25.296875 -0.640625 24.828125 0.046875 C 24.367188 0.742188 23.75 1.125 22.96875 1.1875 Z M 22.96875 1.1875 "/></g></g></g><g fill="#ffffff" fill-opacity="1"><g transform="translate(289.06044, 75.029661)"><g><path d="M 15.03125 -0.796875 C 12.59375 -1.109375 10.382812 -1.910156 8.40625 -3.203125 C 6.425781 -4.492188 4.773438 -6.132812 3.453125 -8.125 C 2.128906 -10.113281 1.226562 -12.328125 0.75 -14.765625 C 0.28125 -17.203125 0.332031 -19.679688 0.90625 -22.203125 C 1.488281 -24.859375 2.539062 -27.171875 4.0625 -29.140625 C 5.59375 -31.109375 7.394531 -32.726562 9.46875 -34 C 11.539062 -35.28125 13.726562 -36.191406 16.03125 -36.734375 C 18.34375 -37.273438 20.617188 -37.421875 22.859375 -37.171875 C 25.109375 -36.921875 27.144531 -36.25 28.96875 -35.15625 C 30.800781 -34.0625 32.28125 -32.523438 33.40625 -30.546875 C 34.53125 -28.578125 35.113281 -26.148438 35.15625 -23.265625 C 35.175781 -22.015625 34.722656 -20.894531 33.796875 -19.90625 C 32.867188 -18.914062 31.640625 -18.046875 30.109375 -17.296875 C 28.578125 -16.546875 26.882812 -15.929688 25.03125 -15.453125 C 23.1875 -14.984375 21.320312 -14.632812 19.4375 -14.40625 C 17.550781 -14.175781 15.832031 -14.066406 14.28125 -14.078125 C 15.144531 -12.097656 16.203125 -10.832031 17.453125 -10.28125 C 18.703125 -9.738281 20.09375 -9.65625 21.625 -10.03125 C 23.164062 -10.40625 24.753906 -11.003906 26.390625 -11.828125 C 27.742188 -12.679688 28.890625 -13.046875 29.828125 -12.921875 C 30.765625 -12.804688 31.75 -12.128906 32.78125 -10.890625 C 33.476562 -10.097656 33.816406 -9.171875 33.796875 -8.109375 C 33.773438 -7.054688 33.378906 -6.128906 32.609375 -5.328125 C 31.628906 -4.273438 30.398438 -3.410156 28.921875 -2.734375 C 27.453125 -2.066406 25.890625 -1.5625 24.234375 -1.21875 C 22.578125 -0.875 20.941406 -0.671875 19.328125 -0.609375 C 17.710938 -0.554688 16.28125 -0.617188 15.03125 -0.796875 Z M 13.796875 -21 C 13.796875 -21 14.21875 -21.003906 15.0625 -21.015625 C 15.914062 -21.035156 16.96875 -21.09375 18.21875 -21.1875 C 19.46875 -21.28125 20.726562 -21.4375 22 -21.65625 C 23.269531 -21.882812 24.3125 -22.195312 25.125 -22.59375 C 25.945312 -23 26.332031 -23.515625 26.28125 -24.140625 C 26.195312 -25.335938 25.710938 -26.222656 24.828125 -26.796875 C 23.941406 -27.378906 22.863281 -27.679688 21.59375 -27.703125 C 20.332031 -27.734375 19.082031 -27.492188 17.84375 -26.984375 C 16.601562 -26.472656 15.59375 -25.707031 14.8125 -24.6875 C 14.03125 -23.675781 13.691406 -22.445312 13.796875 -21 Z M 13.796875 -21 "/></g></g></g><g fill="#ffffff" fill-opacity="1"><g transform="translate(325.022358, 72.452855)"><g><path d="M 18.125 1.53125 C 16.113281 1.675781 14.128906 1.570312 12.171875 1.21875 C 10.222656 0.875 8.429688 0.109375 6.796875 -1.078125 C 5.171875 -2.265625 3.816406 -4.007812 2.734375 -6.3125 C 1.648438 -8.625 0.9375 -11.65625 0.59375 -15.40625 C 0.4375 -17.207031 0.296875 -19.703125 0.171875 -22.890625 C 0.0546875 -26.078125 -0.0625 -30.34375 -0.1875 -35.6875 C -0.1875 -36.332031 -0.222656 -36.953125 -0.296875 -37.546875 C -0.378906 -38.148438 -0.382812 -38.710938 -0.3125 -39.234375 C -0.1875 -40.035156 0.125 -40.695312 0.625 -41.21875 C 1.132812 -41.75 1.738281 -42.132812 2.4375 -42.375 C 3.21875 -42.65625 4.15625 -42.882812 5.25 -43.0625 C 6.34375 -43.238281 7.382812 -43.226562 8.375 -43.03125 C 9.375 -42.832031 10.113281 -42.351562 10.59375 -41.59375 C 10.96875 -40.976562 11.179688 -40.070312 11.234375 -38.875 C 11.285156 -37.675781 11.332031 -36.226562 11.375 -34.53125 C 11.5 -30.144531 11.625 -26.273438 11.75 -22.921875 C 11.875 -19.578125 12.128906 -16.796875 12.515625 -14.578125 C 12.898438 -12.367188 13.53125 -10.734375 14.40625 -9.671875 C 15.289062 -8.609375 16.582031 -8.140625 18.28125 -8.265625 C 18.914062 -8.304688 19.453125 -8.007812 19.890625 -7.375 C 20.335938 -6.75 20.640625 -5.960938 20.796875 -5.015625 C 20.960938 -4.066406 20.988281 -3.097656 20.875 -2.109375 C 20.757812 -1.128906 20.46875 -0.296875 20 0.390625 C 19.539062 1.085938 18.914062 1.46875 18.125 1.53125 Z M 18.125 1.53125 "/></g></g></g><g fill="#ffffff" fill-opacity="1"><g transform="translate(187.507945, 130.248976)"><g><path d="M 23.359375 2.71875 C 20.941406 3.125 18.441406 3.210938 15.859375 2.984375 C 13.285156 2.753906 10.867188 2.132812 8.609375 1.125 C 6.347656 0.125 4.457031 -1.28125 2.9375 -3.09375 C 2.269531 -3.976562 1.765625 -5.023438 1.421875 -6.234375 C 1.078125 -7.441406 1.03125 -8.625 1.28125 -9.78125 C 1.539062 -10.945312 2.164062 -11.90625 3.15625 -12.65625 C 4.414062 -13.582031 5.566406 -14.085938 6.609375 -14.171875 C 7.648438 -14.265625 8.648438 -14.101562 9.609375 -13.6875 C 10.566406 -13.269531 11.460938 -12.707031 12.296875 -12 C 13.367188 -11.4375 14.4375 -10.882812 15.5 -10.34375 C 16.570312 -9.800781 17.601562 -9.566406 18.59375 -9.640625 C 19.59375 -9.710938 20.476562 -10.335938 21.25 -11.515625 C 21.71875 -12.453125 21.765625 -13.25 21.390625 -13.90625 C 21.023438 -14.5625 20.460938 -15.113281 19.703125 -15.5625 C 18.941406 -16.019531 18.132812 -16.40625 17.28125 -16.71875 C 16.425781 -17.03125 15.722656 -17.296875 15.171875 -17.515625 C 13.429688 -18.253906 11.753906 -18.925781 10.140625 -19.53125 C 8.535156 -20.132812 7.082031 -20.847656 5.78125 -21.671875 C 4.488281 -22.503906 3.4375 -23.585938 2.625 -24.921875 C 1.8125 -26.265625 1.328125 -28.019531 1.171875 -30.1875 C 0.992188 -33 1.546875 -35.445312 2.828125 -37.53125 C 4.117188 -39.625 5.9375 -41.3125 8.28125 -42.59375 C 10.625 -43.875 13.285156 -44.660156 16.265625 -44.953125 C 18.898438 -45.097656 21.425781 -44.9375 23.84375 -44.46875 C 26.269531 -44.007812 28.445312 -43.179688 30.375 -41.984375 C 32.3125 -40.785156 33.882812 -39.113281 35.09375 -36.96875 C 35.726562 -36.039062 36.023438 -35.035156 35.984375 -33.953125 C 35.953125 -32.878906 35.625 -31.914062 35 -31.0625 C 34.382812 -30.21875 33.484375 -29.617188 32.296875 -29.265625 C 31.179688 -28.804688 30.046875 -28.675781 28.890625 -28.875 C 27.742188 -29.070312 26.613281 -29.441406 25.5 -29.984375 C 24.394531 -30.523438 23.328125 -31.085938 22.296875 -31.671875 C 21.273438 -32.265625 20.3125 -32.71875 19.40625 -33.03125 C 18.507812 -33.34375 17.6875 -33.382812 16.9375 -33.15625 C 16.195312 -32.9375 15.550781 -32.28125 15 -31.1875 C 14.675781 -30.40625 14.738281 -29.734375 15.1875 -29.171875 C 15.644531 -28.609375 16.285156 -28.140625 17.109375 -27.765625 C 17.929688 -27.390625 18.765625 -27.0625 19.609375 -26.78125 C 20.453125 -26.5 21.125 -26.257812 21.625 -26.0625 C 23.5625 -25.445312 25.421875 -24.734375 27.203125 -23.921875 C 28.992188 -23.117188 30.613281 -22.175781 32.0625 -21.09375 C 33.519531 -20.007812 34.695312 -18.742188 35.59375 -17.296875 C 36.488281 -15.847656 36.96875 -14.164062 37.03125 -12.25 C 37.164062 -9.320312 36.59375 -6.816406 35.3125 -4.734375 C 34.039062 -2.648438 32.34375 -1 30.21875 0.21875 C 28.101562 1.445312 25.816406 2.28125 23.359375 2.71875 Z M 23.359375 2.71875 "/></g></g></g><g fill="#ffffff" fill-opacity="1"><g transform="translate(225.043183, 127.559437)"><g><path d="M 7.046875 2.9375 C 5.753906 2.78125 4.726562 2.492188 3.96875 2.078125 C 3.207031 1.660156 2.71875 0.945312 2.5 -0.0625 C 2.320312 -0.851562 2.148438 -1.972656 1.984375 -3.421875 C 1.828125 -4.878906 1.664062 -6.863281 1.5 -9.375 C 1.34375 -11.882812 1.144531 -15.050781 0.90625 -18.875 C 0.707031 -21.15625 0.457031 -23.460938 0.15625 -25.796875 C -0.144531 -28.128906 -0.390625 -30.441406 -0.578125 -32.734375 C -0.785156 -34.972656 -0.90625 -36.878906 -0.9375 -38.453125 C -0.976562 -40.035156 -0.722656 -41.148438 -0.171875 -41.796875 C 0.378906 -42.429688 1.179688 -42.898438 2.234375 -43.203125 C 3.296875 -43.515625 4.398438 -43.691406 5.546875 -43.734375 C 6.691406 -43.773438 7.6875 -43.675781 8.53125 -43.4375 C 9.289062 -43.21875 9.972656 -42.8125 10.578125 -42.21875 C 11.191406 -41.625 11.65625 -40.796875 11.96875 -39.734375 C 12.164062 -39.035156 12.257812 -38.285156 12.25 -37.484375 C 12.25 -36.691406 12.300781 -35.882812 12.40625 -35.0625 C 12.582031 -33.6875 12.734375 -32.359375 12.859375 -31.078125 C 12.992188 -29.804688 13.117188 -28.59375 13.234375 -27.4375 C 13.941406 -27.90625 14.78125 -28.265625 15.75 -28.515625 C 16.71875 -28.773438 17.632812 -28.9375 18.5 -29 C 22.207031 -29.257812 25.1875 -28.039062 27.4375 -25.34375 C 28.882812 -23.601562 30.035156 -21.21875 30.890625 -18.1875 C 31.753906 -15.164062 32.316406 -11.816406 32.578125 -8.140625 C 32.691406 -6.566406 32.71875 -5.257812 32.65625 -4.21875 C 32.601562 -3.1875 32.191406 -2.269531 31.421875 -1.46875 C 30.609375 -0.570312 29.546875 -0.078125 28.234375 0.015625 C 26.929688 0.109375 25.789062 -0.335938 24.8125 -1.328125 C 24.289062 -1.847656 23.925781 -2.363281 23.71875 -2.875 C 23.507812 -3.394531 23.390625 -4.007812 23.359375 -4.71875 C 23.328125 -5.425781 23.273438 -6.328125 23.203125 -7.421875 C 23.109375 -8.734375 22.972656 -10.015625 22.796875 -11.265625 C 22.628906 -12.515625 22.398438 -13.882812 22.109375 -15.375 C 21.859375 -16.851562 21.460938 -17.945312 20.921875 -18.65625 C 20.378906 -19.375 19.796875 -19.710938 19.171875 -19.671875 C 17.773438 -19.566406 16.660156 -18.75 15.828125 -17.21875 C 14.992188 -15.695312 14.695312 -13.269531 14.9375 -9.9375 C 15.125 -7.269531 15.191406 -5.273438 15.140625 -3.953125 C 15.085938 -2.640625 14.9375 -1.597656 14.6875 -0.828125 C 14.269531 0.597656 13.304688 1.632812 11.796875 2.28125 C 10.296875 2.925781 8.710938 3.144531 7.046875 2.9375 Z M 7.046875 2.9375 "/></g></g></g><g fill="#ffffff" fill-opacity="1"><g transform="translate(257.352754, 125.244336)"><g><path d="M 11.109375 -0.0625 C 8.535156 -0.9375 6.445312 -2.289062 4.84375 -4.125 C 3.25 -5.96875 2.101562 -8.0625 1.40625 -10.40625 C 0.71875 -12.75 0.453125 -15.160156 0.609375 -17.640625 C 0.765625 -20.128906 1.332031 -22.476562 2.3125 -24.6875 C 3.300781 -26.90625 4.65625 -28.789062 6.375 -30.34375 C 8.09375 -31.90625 10.175781 -32.941406 12.625 -33.453125 C 15.070312 -33.972656 17.84375 -33.734375 20.9375 -32.734375 C 23.25 -31.960938 25.203125 -30.8125 26.796875 -29.28125 C 28.390625 -27.757812 29.625 -26.023438 30.5 -24.078125 C 31.382812 -22.128906 31.929688 -20.085938 32.140625 -17.953125 C 32.347656 -15.816406 32.242188 -13.734375 31.828125 -11.703125 C 31.367188 -9.648438 30.503906 -7.738281 29.234375 -5.96875 C 27.960938 -4.207031 26.378906 -2.726562 24.484375 -1.53125 C 22.585938 -0.34375 20.503906 0.40625 18.234375 0.71875 C 15.960938 1.039062 13.585938 0.78125 11.109375 -0.0625 Z M 12.890625 -13.34375 C 13.234375 -12.207031 13.8125 -11.195312 14.625 -10.3125 C 15.4375 -9.425781 16.382812 -8.945312 17.46875 -8.875 C 18.550781 -8.800781 19.625 -9.375 20.6875 -10.59375 C 21.5 -11.507812 22.039062 -12.5625 22.3125 -13.75 C 22.59375 -14.9375 22.6875 -16.144531 22.59375 -17.375 C 22.507812 -18.613281 22.273438 -19.75 21.890625 -20.78125 C 21.703125 -21.445312 21.363281 -22.128906 20.875 -22.828125 C 20.394531 -23.523438 19.804688 -24.113281 19.109375 -24.59375 C 18.410156 -25.070312 17.664062 -25.300781 16.875 -25.28125 C 16.09375 -25.257812 15.316406 -24.84375 14.546875 -24.03125 C 13.710938 -23.101562 13.132812 -22.003906 12.8125 -20.734375 C 12.488281 -19.472656 12.351562 -18.195312 12.40625 -16.90625 C 12.46875 -15.613281 12.628906 -14.425781 12.890625 -13.34375 Z M 12.890625 -13.34375 "/></g></g></g><g fill="#ffffff" fill-opacity="1"><g transform="translate(289.943274, 122.909104)"><g><path d="M 12.71875 6.328125 C 11.875 6.648438 10.84375 6.875 9.625 7 C 8.40625 7.125 7.222656 7.113281 6.078125 6.96875 C 4.941406 6.820312 4.046875 6.507812 3.390625 6.03125 C 2.671875 5.507812 2.21875 4.503906 2.03125 3.015625 C 1.84375 1.523438 1.695312 -0.269531 1.59375 -2.375 C 1.46875 -4.539062 1.394531 -6.722656 1.375 -8.921875 C 1.351562 -11.128906 1.28125 -13.320312 1.15625 -15.5 C 0.863281 -19.132812 0.617188 -22.117188 0.421875 -24.453125 C 0.234375 -26.796875 0.125 -28.664062 0.09375 -30.0625 C 0.0703125 -31.457031 0.09375 -32.519531 0.15625 -33.25 C 0.28125 -34.21875 0.707031 -34.953125 1.4375 -35.453125 C 2.175781 -35.960938 3.210938 -36.382812 4.546875 -36.71875 C 6.171875 -37.125 7.757812 -37.15625 9.3125 -36.8125 C 10.863281 -36.476562 12.03125 -35.789062 12.8125 -34.75 C 17.082031 -36.1875 20.6875 -36.457031 23.625 -35.5625 C 26.570312 -34.664062 28.789062 -32.894531 30.28125 -30.25 C 31.769531 -27.601562 32.445312 -24.351562 32.3125 -20.5 C 32.238281 -18.4375 31.738281 -16.738281 30.8125 -15.40625 C 29.882812 -14.070312 28.71875 -13.015625 27.3125 -12.234375 C 25.90625 -11.453125 24.421875 -10.894531 22.859375 -10.5625 C 21.304688 -10.226562 19.847656 -10.039062 18.484375 -10 C 17.128906 -9.957031 16.070312 -9.984375 15.3125 -10.078125 C 15.363281 -8.878906 15.414062 -7.609375 15.46875 -6.265625 C 15.53125 -4.929688 15.578125 -3.519531 15.609375 -2.03125 C 15.628906 -1.28125 15.679688 -0.53125 15.765625 0.21875 C 15.859375 0.976562 15.875 1.695312 15.8125 2.375 C 15.65625 3.394531 15.300781 4.222656 14.75 4.859375 C 14.195312 5.503906 13.519531 5.992188 12.71875 6.328125 Z M 14.96875 -18.75 C 17.507812 -18.675781 19.382812 -18.867188 20.59375 -19.328125 C 21.800781 -19.796875 22.570312 -20.453125 22.90625 -21.296875 C 23.25 -22.148438 23.304688 -23.054688 23.078125 -24.015625 C 22.890625 -24.984375 22.3125 -25.675781 21.34375 -26.09375 C 20.375 -26.519531 19.265625 -26.742188 18.015625 -26.765625 C 16.773438 -26.785156 15.640625 -26.648438 14.609375 -26.359375 C 14.742188 -24.441406 14.863281 -21.90625 14.96875 -18.75 Z M 14.96875 -18.75 "/></g></g></g></svg>